<svg xmlns="http://www.w3.org/2000/svg" xmlns:xlink="http://www.w3.org/1999/xlink" width="500" zoomAndPan="magnify" viewBox="0 0 375 374.999991" height="500" preserveAspectRatio="xMidYMid meet" version="1.0"><defs><clipPath id="ec3a68bb5b"><path d="M 71.574219 62.785156 L 303.859375 62.785156 L 303.859375 312.535156 L 71.574219 312.535156 Z M 71.574219 62.785156 " clip-rule="nonzero"/></clipPath></defs><rect x="-37.5" width="450" fill="#ffffff" y="-37.499999" height="449.999989" fill-opacity="1"/><rect x="-37.5" width="450" fill="#aeafe4" y="-37.499999" height="449.999989" fill-opacity="1"/><g clip-path="url(#ec3a68bb5b)"><path fill="#040606" d="M 278.148438 229.101562 L 295.945312 237.4375 L 295.945312 262.804688 Z M 218.703125 208.257812 L 233.085938 208.257812 L 266.800781 223.800781 L 294.4375 276.460938 L 236.878906 302.980469 Z M 164.15625 208.257812 L 211.121094 208.257812 L 229.675781 304.863281 L 145.605469 304.863281 Z M 108.5 223.800781 L 142.191406 208.257812 L 156.574219 208.257812 L 138.402344 302.980469 L 80.839844 276.460938 Z M 79.332031 237.4375 L 97.128906 229.101562 L 79.332031 262.804688 Z M 102.804688 218.105469 L 85.761719 226.0625 L 148.640625 131.742188 Z M 226.660156 131.742188 L 289.519531 226.0625 L 272.472656 218.105469 Z M 237.253906 201.828125 L 206.203125 109.015625 L 261.125 212.804688 Z M 202.035156 120.746094 L 228.921875 200.675781 L 217.550781 200.675781 Z M 187.648438 86.265625 L 209.613281 200.675781 L 165.683594 200.675781 Z M 173.242188 120.746094 L 158.105469 200.675781 L 146.734375 200.675781 Z M 138.023438 201.828125 L 114.175781 212.804688 L 169.078125 109.015625 Z M 190.664062 63.917969 C 190.664062 63.539062 190.289062 63.539062 190.289062 63.539062 C 190.289062 63.539062 190.289062 63.164062 189.910156 63.164062 C 189.535156 63.164062 189.535156 62.785156 189.15625 62.785156 L 186.496094 62.785156 C 186.496094 62.785156 186.121094 62.785156 186.121094 63.164062 C 185.742188 63.164062 185.742188 63.539062 185.367188 63.539062 L 184.613281 64.292969 C 72.503906 232.515625 71.753906 233.269531 71.753906 235.15625 C 71.753906 285.53125 70.621094 278.347656 74.035156 281.761719 C 88.796875 288.566406 139.929688 312.449219 140.683594 312.449219 C 141.058594 312.449219 234.59375 312.824219 236.125 312.046875 C 306.941406 279.101562 303.902344 281.382812 303.902344 278.347656 L 303.902344 234.777344 C 303.527344 233.246094 191.042969 64.292969 190.664062 63.917969 " fill-opacity="1" fill-rule="nonzero"/></g></svg>