<svg xmlns="http://www.w3.org/2000/svg" xmlns:xlink="http://www.w3.org/1999/xlink" width="500" zoomAndPan="magnify" viewBox="0 0 375 374.999991" height="500" preserveAspectRatio="xMidYMid meet" version="1.0"><defs><clipPath id="5184f8b7c0"><path d="M 79.699219 103.632812 L 294 103.632812 L 294 270.554688 L 79.699219 270.554688 Z M 79.699219 103.632812 " clip-rule="nonzero"/></clipPath></defs><rect x="-37.5" width="450" fill="#ffffff" y="-37.499999" height="449.999989" fill-opacity="1"/><rect x="-37.5" width="450" fill="#aeafe4" y="-37.499999" height="449.999989" fill-opacity="1"/><g clip-path="url(#5184f8b7c0)"><path fill="#000000" d="M 278.167969 154.0625 C 277.292969 147.566406 277.175781 136.363281 283.214844 132.609375 C 283.3125 132.542969 283.398438 132.441406 283.5 132.355469 C 288.425781 130.773438 291.839844 128.554688 289.164062 125.574219 L 216.382812 103.632812 L 98.550781 120.023438 C 98.550781 120.023438 85.066406 121.957031 86.257812 142.941406 C 86.914062 154.347656 90.496094 159.953125 93.625 162.710938 L 83.957031 165.640625 C 81.28125 168.617188 84.695312 170.824219 89.621094 172.402344 C 89.722656 172.488281 89.789062 172.589844 89.910156 172.65625 C 95.929688 176.425781 95.8125 187.613281 94.953125 194.128906 C 73.292969 200.269531 81.0625 202.289062 81.0625 202.289062 L 85.820312 203.433594 C 82.476562 206.460938 79.144531 212.183594 79.785156 223.050781 C 80.980469 244.035156 92.0625 245.480469 92.0625 245.480469 L 169.179688 270.554688 L 285.566406 242.351562 C 285.566406 242.351562 293.335938 240.332031 271.675781 234.175781 C 270.800781 227.695312 270.683594 216.488281 276.722656 212.71875 C 276.839844 212.652344 276.90625 212.550781 277.007812 212.46875 C 281.933594 210.886719 285.347656 208.683594 282.675781 205.703125 L 277.613281 204.171875 C 280.992188 202.136719 286.054688 196.820312 286.84375 182.988281 C 287.398438 173.496094 284.910156 167.929688 282.050781 164.648438 L 292.042969 162.222656 C 292.042969 162.222656 299.828125 160.222656 278.167969 154.0625 Z M 180.816406 153.792969 L 200.375 149.773438 L 266.53125 136.160156 L 276.386719 134.140625 C 273.222656 139.910156 273.359375 147.804688 273.878906 152.867188 C 273.996094 154.011719 274.132812 155.054688 274.25 155.863281 L 263.46875 158.539062 L 179.992188 179.320312 Z M 96.734375 174.203125 L 106.589844 176.222656 L 170.105469 189.296875 L 175.65625 190.441406 L 192.304688 193.859375 L 193.109375 219.382812 L 107.3125 198.03125 L 98.855469 195.925781 C 98.988281 195.121094 99.105469 194.078125 99.242188 192.933594 C 99.746094 187.867188 99.878906 179.976562 96.734375 174.203125 Z M 92.902344 141.929688 C 92.785156 136.34375 93.777344 132.304688 95.792969 130.253906 C 97.070312 128.941406 98.585938 128.671875 99.613281 128.671875 C 100.167969 128.671875 100.554688 128.757812 100.585938 128.757812 L 151.355469 145.3125 L 176.679688 153.574219 L 175.855469 179.285156 L 104.789062 159.347656 L 101.039062 158.304688 C 100.90625 158.269531 100.703125 158.234375 100.570312 158.234375 C 100.265625 158.203125 93.253906 157.5625 92.902344 141.929688 Z M 169.367188 259.414062 L 94.550781 238.429688 C 94.414062 238.378906 94.230469 238.363281 94.078125 238.347656 C 93.777344 238.332031 86.746094 237.691406 86.410156 222.058594 C 86.292969 216.472656 87.285156 212.433594 89.304688 210.382812 C 90.582031 209.070312 92.078125 208.800781 93.121094 208.800781 C 93.660156 208.800781 94.0625 208.882812 94.078125 208.882812 C 94.078125 208.882812 94.09375 208.882812 94.078125 208.882812 L 170.191406 233.703125 Z M 267.390625 232.996094 C 267.507812 234.140625 267.640625 235.183594 267.757812 235.992188 L 173.503906 259.449219 L 174.308594 233.921875 L 194.472656 229.765625 L 197.449219 230.488281 L 208.597656 226.871094 L 260.023438 216.289062 L 269.878906 214.269531 C 266.734375 220.023438 266.867188 227.914062 267.390625 232.996094 Z M 272.585938 198.285156 C 272.417969 198.300781 272.230469 198.316406 272.082031 198.367188 L 264.96875 200.371094 L 197.265625 219.351562 L 196.441406 193.640625 L 218.65625 186.386719 L 272.433594 168.835938 C 272.433594 168.835938 275.257812 168.214844 277.328125 170.316406 C 279.328125 172.371094 280.335938 176.410156 280.21875 181.996094 C 279.867188 197.628906 272.835938 198.265625 272.585938 198.285156 Z M 272.585938 198.285156 " fill-opacity="1" fill-rule="nonzero"/></g></svg>