<svg xmlns="http://www.w3.org/2000/svg" xmlns:xlink="http://www.w3.org/1999/xlink" width="500" zoomAndPan="magnify" viewBox="0 0 375 374.999991" height="500" preserveAspectRatio="xMidYMid meet" version="1.0"><rect x="-37.5" width="450" fill="#ffffff" y="-37.499999" height="449.999989" fill-opacity="1"/><rect x="-37.5" width="450" fill="#aeafe4" y="-37.499999" height="449.999989" fill-opacity="1"/><path fill="#ffffff" d="M 292.546875 178.3125 L 286.457031 187.34375 L 154.601562 98.539062 L 160.691406 89.507812 C 163.484375 85.355469 169.144531 84.246094 173.28125 87.039062 L 290.078125 165.707031 C 294.230469 168.5 295.339844 174.160156 292.546875 178.3125 Z M 250.074219 241.375 L 256.769531 193.59375 L 274.296875 205.402344 Z M 237.660156 282.8125 C 236.964844 287.765625 232.367188 291.238281 227.417969 290.542969 L 87.964844 271.003906 C 83.015625 270.3125 79.527344 265.699219 80.238281 260.75 L 88.792969 199.640625 L 246.230469 221.71875 Z M 93.332031 167.304688 C 94.023438 162.335938 98.621094 158.878906 103.570312 159.574219 L 243.023438 179.125 C 247.988281 179.804688 251.460938 184.402344 250.753906 189.367188 L 249.246094 200.140625 L 91.808594 178.078125 Z M 142.453125 116.597656 L 220.871094 169.417969 L 116.710938 154.800781 Z M 293.730469 160.296875 L 176.949219 81.632812 C 169.808594 76.828125 160.085938 78.707031 155.269531 85.859375 L 109.5 153.796875 L 104.488281 153.101562 C 95.960938 151.902344 88.054688 157.875 86.855469 166.402344 L 73.777344 259.832031 C 72.566406 268.359375 78.535156 276.265625 87.050781 277.464844 L 226.5 297.015625 C 235.027344 298.214844 242.933594 292.226562 244.132812 283.714844 L 248.003906 256.136719 L 297.957031 181.949219 C 302.773438 174.824219 300.867188 165.101562 293.730469 160.296875 " fill-opacity="1" fill-rule="nonzero"/><path fill="#ffffff" d="M 164.074219 227.214844 L 231.320312 236.660156 L 232.058594 231.324219 L 164.828125 221.894531 L 164.074219 227.214844 " fill-opacity="1" fill-rule="nonzero"/><path fill="#ffffff" d="M 162.480469 238.742188 L 229.707031 248.15625 L 230.445312 242.824219 L 163.21875 233.394531 L 162.480469 238.742188 " fill-opacity="1" fill-rule="nonzero"/></svg>