<svg xmlns="http://www.w3.org/2000/svg" xmlns:xlink="http://www.w3.org/1999/xlink" width="500" zoomAndPan="magnify" viewBox="0 0 375 374.999991" height="500" preserveAspectRatio="xMidYMid meet" version="1.0"><defs><clipPath id="10c0d3de95"><path d="M 170 87 L 295.171875 87 L 295.171875 262 L 170 262 Z M 170 87 " clip-rule="nonzero"/></clipPath></defs><rect x="-37.5" width="450" fill="#ffffff" y="-37.499999" height="449.999989" fill-opacity="1"/><rect x="-37.5" width="450" fill="#aeafe4" y="-37.499999" height="449.999989" fill-opacity="1"/><g clip-path="url(#10c0d3de95)"><path fill="#1c191a" d="M 213.976562 87.546875 L 201.558594 192.261719 C 200.230469 192.046875 198.867188 191.949219 197.453125 191.988281 C 194.671875 192.050781 191.832031 192.597656 189.019531 193.617188 C 177.070312 197.925781 169.269531 209.214844 171.257812 219.316406 C 172.765625 227.03125 179.785156 232.210938 188.714844 232.210938 C 188.90625 232.210938 189.09375 232.210938 189.277344 232.207031 C 192.0625 232.140625 194.90625 231.59375 197.722656 230.578125 C 207.355469 227.101562 214.609375 218.90625 215.789062 210.109375 L 225.582031 127.398438 L 275.742188 154.042969 L 267.785156 221.25 C 266.496094 221.046875 265.125 220.960938 263.800781 220.992188 C 261.023438 221.058594 258.1875 221.605469 255.375 222.617188 C 243.433594 226.925781 235.628906 238.21875 237.609375 248.332031 C 239.125 256.046875 246.140625 261.222656 255.070312 261.222656 C 255.257812 261.222656 255.441406 261.21875 255.632812 261.214844 C 258.417969 261.152344 261.257812 260.601562 264.078125 259.582031 C 273.695312 256.113281 280.898438 247.957031 282.011719 239.253906 L 295.105469 128.765625 L 213.976562 87.546875 " fill-opacity="1" fill-rule="nonzero"/></g><path fill="#1c191a" d="M 143.234375 172.742188 C 141.535156 171.40625 139.699219 170.121094 137.605469 168.804688 C 136.660156 168.214844 135.703125 167.648438 134.777344 167.125 C 133.683594 166.511719 132.699219 166.003906 131.78125 165.539062 C 130.628906 164.960938 129.496094 164.414062 128.378906 163.875 C 126.03125 162.742188 123.8125 161.679688 121.898438 160.515625 C 119.363281 159.003906 117.511719 157.347656 116.386719 155.582031 C 116.0625 155.078125 115.386719 153.679688 114.839844 152.558594 L 113.949219 150.746094 C 113.125 149.058594 112.191406 147.15625 110.3125 144.65625 C 108.441406 142.175781 105.617188 140.753906 102.574219 140.753906 C 101.375 140.753906 100.1875 140.972656 99.074219 141.402344 C 98.640625 141.566406 98.210938 141.761719 97.78125 141.996094 C 93.378906 144.390625 90.972656 149.628906 91.945312 154.738281 L 114.519531 253.929688 C 112.207031 254.195312 109.863281 254.777344 107.535156 255.667969 C 104.09375 256.984375 100.796875 258.925781 97.730469 261.441406 C 84.710938 272.128906 79.898438 289.609375 86.792969 301.238281 C 90.4375 307.375 96.867188 310.902344 104.433594 310.902344 C 107.683594 310.902344 111.011719 310.261719 114.320312 308.992188 C 117.769531 307.675781 121.074219 305.726562 124.152344 303.207031 C 134.648438 294.570312 140.066406 281.195312 137.617188 269.871094 L 117.707031 182.402344 C 118.757812 182.78125 119.785156 183.132812 120.804688 183.484375 C 121.875 183.855469 122.929688 184.214844 123.863281 184.554688 L 126.320312 185.511719 C 127.265625 185.914062 127.988281 186.234375 128.625 186.542969 C 130.125 187.253906 131.585938 188.042969 132.992188 188.894531 C 139.085938 192.574219 143.417969 197.300781 145.890625 203 C 148.566406 208.976562 149.226562 216.714844 147.75 224.832031 C 147.203125 227.933594 148.976562 230.945312 151.878906 231.839844 C 153.125 232.21875 154.464844 232.179688 155.734375 231.699219 C 157.5625 230.996094 158.9375 229.484375 159.5 227.578125 C 162.734375 216.859375 162.9375 205.886719 160.082031 196.71875 C 157.277344 187.550781 151.457031 179.269531 143.234375 172.742188 " fill-opacity="1" fill-rule="nonzero"/><path fill="#1c191a" d="M 184.527344 86.648438 C 183.921875 85.710938 183.238281 84.78125 182.441406 83.792969 C 182.078125 83.347656 181.707031 82.914062 181.34375 82.503906 C 180.914062 82.023438 180.519531 81.609375 180.148438 81.230469 C 179.683594 80.761719 179.21875 80.308594 178.769531 79.863281 C 177.816406 78.917969 176.910156 78.03125 176.171875 77.144531 C 175.191406 75.984375 174.566406 74.871094 174.308594 73.824219 C 174.234375 73.527344 174.140625 72.734375 174.0625 72.097656 L 173.925781 71.066406 C 173.808594 70.109375 173.667969 69.023438 173.171875 67.496094 C 172.671875 65.976562 171.535156 64.816406 170.050781 64.308594 C 169.464844 64.113281 168.855469 64.023438 168.234375 64.042969 C 168 64.050781 167.757812 64.074219 167.511719 64.121094 C 164.964844 64.550781 162.921875 66.707031 162.546875 69.351562 L 157.023438 121.414062 C 155.851562 121.160156 154.617188 121.054688 153.332031 121.101562 C 151.4375 121.171875 149.511719 121.570312 147.597656 122.289062 C 139.472656 125.328125 134.222656 133.042969 135.644531 139.847656 C 136.394531 143.449219 138.941406 146.230469 142.628906 147.488281 C 144.207031 148.023438 145.933594 148.269531 147.757812 148.203125 C 149.65625 148.132812 151.59375 147.730469 153.511719 147.015625 C 160.0625 144.554688 164.925781 138.945312 165.617188 133.015625 L 170.488281 87.109375 C 170.9375 87.464844 171.375 87.808594 171.8125 88.148438 C 172.277344 88.511719 172.726562 88.859375 173.125 89.183594 L 174.164062 90.054688 C 174.558594 90.40625 174.855469 90.683594 175.113281 90.9375 C 175.730469 91.53125 176.308594 92.160156 176.851562 92.808594 C 179.203125 95.613281 180.527344 98.632812 180.78125 101.824219 C 181.09375 105.175781 180.125 109.058594 178.050781 112.765625 C 177.273438 114.183594 177.632812 115.945312 178.894531 116.863281 C 179.441406 117.257812 180.101562 117.460938 180.796875 117.4375 C 181.808594 117.398438 182.730469 116.890625 183.320312 116.054688 C 186.679688 111.371094 188.601562 106.0625 188.742188 101.121094 C 188.902344 96.191406 187.445312 91.191406 184.527344 86.648438 " fill-opacity="1" fill-rule="nonzero"/></svg>