<svg xmlns="http://www.w3.org/2000/svg" xmlns:xlink="http://www.w3.org/1999/xlink" width="500" zoomAndPan="magnify" viewBox="0 0 375 374.999991" height="500" preserveAspectRatio="xMidYMid meet" version="1.0"><defs><clipPath id="ad5c612999"><path d="M 63 77.652344 L 313.765625 77.652344 L 313.765625 297.402344 L 63 297.402344 Z M 63 77.652344 " clip-rule="nonzero"/></clipPath></defs><rect x="-37.5" width="450" fill="#ffffff" y="-37.499999" height="449.999989" fill-opacity="1"/><rect x="-37.5" width="450" fill="#aeafe4" y="-37.499999" height="449.999989" fill-opacity="1"/><g clip-path="url(#ad5c612999)"><path fill="#000000" d="M 311.5 102.632812 C 309.273438 100.40625 305.847656 100.179688 303.347656 102.097656 C 281.925781 118.539062 261.496094 135.507812 243.914062 150.699219 C 237.265625 131.945312 225.558594 115.21875 209.648438 102.386719 C 189.589844 86.207031 164.660156 77.652344 137.546875 77.652344 C 117.597656 77.652344 99.871094 83.0625 86.289062 93.296875 C 74.8125 101.9375 66.738281 113.882812 64.125 126.058594 C 61.039062 140.4375 65.910156 152.425781 76.839844 157.34375 C 95 165.515625 97.605469 177.558594 97.542969 184.007812 C 97.523438 186.324219 97.523438 188.671875 97.542969 190.988281 C 97.605469 197.4375 95 209.480469 76.839844 217.65625 C 65.910156 222.574219 61.039062 234.558594 64.125 248.941406 C 66.738281 261.121094 74.8125 273.058594 86.289062 281.703125 C 99.871094 291.9375 117.597656 297.34375 137.546875 297.34375 C 164.660156 297.34375 189.589844 288.792969 209.648438 272.613281 C 235.429688 251.816406 250.214844 220.792969 250.214844 187.5 C 250.214844 186.789062 250.195312 186.082031 250.183594 185.378906 C 268.296875 164.933594 290.617188 138.707031 312.039062 110.785156 C 313.953125 108.289062 313.726562 104.859375 311.5 102.632812 Z M 205.632812 267.632812 C 186.726562 282.882812 163.179688 290.945312 137.546875 290.945312 C 118.996094 290.945312 102.601562 285.980469 90.136719 276.589844 C 79.878906 268.863281 72.675781 258.289062 70.382812 247.597656 C 67.964844 236.339844 71.445312 227.097656 79.464844 223.488281 C 88.914062 219.242188 95.769531 213.472656 99.84375 206.359375 C 103.296875 200.324219 103.980469 194.636719 103.941406 190.929688 C 103.921875 188.652344 103.921875 186.347656 103.941406 184.070312 C 103.980469 180.363281 103.296875 174.675781 99.84375 168.640625 C 95.769531 161.523438 88.914062 155.757812 79.464844 151.507812 C 71.445312 147.898438 67.964844 138.660156 70.382812 127.402344 C 72.675781 116.707031 79.878906 106.136719 90.136719 98.40625 C 102.601562 89.019531 118.996094 84.050781 137.546875 84.050781 C 163.179688 84.050781 186.726562 92.113281 205.632812 107.363281 C 221.273438 119.984375 232.609375 136.609375 238.691406 155.222656 C 208.730469 181.335938 188.195312 201.191406 187.25 202.109375 C 187.238281 202.121094 187.226562 202.132812 187.21875 202.140625 C 187.214844 202.144531 187.210938 202.148438 187.207031 202.152344 C 187.199219 202.160156 187.195312 202.164062 187.183594 202.167969 L 179.890625 209.464844 C 177.929688 209.765625 173.988281 210.636719 169.765625 213.082031 C 164.378906 216.199219 157.441406 222.558594 154.972656 235.152344 C 151.773438 251.46875 149.410156 257.511719 143.980469 263.253906 C 141.804688 265.550781 141.253906 268.886719 142.585938 271.753906 C 143.84375 274.472656 146.527344 276.167969 149.496094 276.167969 C 149.640625 276.167969 149.785156 276.164062 149.933594 276.15625 C 158.089844 275.703125 170.066406 273.855469 180.824219 267.613281 C 193.179688 260.445312 201.15625 249.261719 204.546875 234.367188 L 211.984375 226.933594 C 212.007812 226.90625 212.035156 226.882812 212.054688 226.855469 C 212.738281 226.15625 218.730469 219.949219 228.132812 209.761719 C 228.359375 209.519531 228.585938 209.277344 228.8125 209.027344 C 231.152344 206.492188 233.695312 203.714844 236.414062 200.722656 C 236.867188 200.222656 237.328125 199.722656 237.785156 199.207031 C 239.675781 197.128906 241.644531 194.941406 243.679688 192.671875 C 242.238281 222.046875 228.554688 249.136719 205.632812 267.632812 Z M 185.902344 212.503906 L 189.445312 208.957031 L 205.179688 224.6875 L 201.628906 228.238281 Z M 198.113281 233.769531 C 195.027344 246.453125 188.140625 255.96875 177.617188 262.078125 C 167.949219 267.683594 157.035156 269.355469 149.578125 269.769531 C 148.847656 269.808594 148.519531 269.34375 148.390625 269.0625 C 148.253906 268.773438 148.105469 268.199219 148.625 267.648438 C 155.640625 260.242188 158.191406 252.015625 161.253906 236.386719 C 164.429688 220.152344 176.183594 216.625 180.230469 215.886719 Z M 249.640625 176.316406 C 247.617188 178.621094 245.636719 180.863281 243.707031 183.03125 C 227.289062 201.507812 214.597656 214.945312 209.65625 220.117188 L 194.019531 204.480469 C 200.046875 198.722656 217.289062 182.445312 240.65625 162.003906 C 242.414062 160.464844 244.207031 158.90625 246.03125 157.324219 C 263.65625 142.046875 284.296875 124.832031 306.019531 108.121094 C 286.636719 133.308594 266.574219 157.058594 249.640625 176.316406 Z M 249.640625 176.316406 " fill-opacity="1" fill-rule="nonzero"/></g><path fill="#000000" d="M 128.8125 128.132812 C 128.8125 117.03125 119.785156 108.003906 108.683594 108.003906 C 97.585938 108.003906 88.558594 117.03125 88.558594 128.132812 C 88.558594 139.230469 97.585938 148.257812 108.683594 148.257812 C 119.785156 148.257812 128.8125 139.230469 128.8125 128.132812 Z M 94.960938 128.132812 C 94.960938 120.5625 101.121094 114.402344 108.691406 114.402344 C 116.257812 114.402344 122.417969 120.5625 122.417969 128.132812 C 122.417969 135.699219 116.257812 141.859375 108.691406 141.859375 C 101.121094 141.859375 94.960938 135.703125 94.960938 128.132812 Z M 94.960938 128.132812 " fill-opacity="1" fill-rule="nonzero"/><path fill="#000000" d="M 160.511719 140.179688 C 170.242188 140.179688 178.160156 132.261719 178.160156 122.53125 C 178.160156 112.800781 170.242188 104.882812 160.511719 104.882812 C 150.78125 104.882812 142.863281 112.800781 142.863281 122.53125 C 142.863281 132.261719 150.78125 140.179688 160.511719 140.179688 Z M 160.511719 111.28125 C 166.714844 111.28125 171.761719 116.328125 171.761719 122.53125 C 171.761719 128.734375 166.714844 133.777344 160.511719 133.777344 C 154.308594 133.777344 149.261719 128.734375 149.261719 122.53125 C 149.261719 116.328125 154.308594 111.28125 160.511719 111.28125 Z M 160.511719 111.28125 " fill-opacity="1" fill-rule="nonzero"/><path fill="#000000" d="M 203.296875 161.113281 C 211.582031 161.113281 218.328125 154.375 218.328125 146.085938 C 218.328125 137.796875 211.585938 131.058594 203.296875 131.058594 C 195.011719 131.058594 188.269531 137.796875 188.269531 146.085938 C 188.269531 154.375 195.011719 161.113281 203.296875 161.113281 Z M 203.296875 137.460938 C 208.054688 137.460938 211.925781 141.328125 211.925781 146.089844 C 211.925781 150.851562 208.058594 154.71875 203.296875 154.71875 C 198.535156 154.71875 194.667969 150.851562 194.667969 146.089844 C 194.667969 141.328125 198.542969 137.460938 203.296875 137.460938 Z M 203.296875 137.460938 " fill-opacity="1" fill-rule="nonzero"/><path fill="#000000" d="M 114.335938 225.089844 C 104.605469 225.089844 96.691406 233.007812 96.691406 242.738281 C 96.691406 252.46875 104.605469 260.386719 114.335938 260.386719 C 124.066406 260.386719 131.984375 252.46875 131.984375 242.738281 C 131.984375 233.007812 124.066406 225.089844 114.335938 225.089844 Z M 114.335938 253.988281 C 108.136719 253.988281 103.089844 248.941406 103.089844 242.738281 C 103.089844 236.535156 108.136719 231.488281 114.335938 231.488281 C 120.539062 231.488281 125.585938 236.535156 125.585938 242.738281 C 125.585938 248.941406 120.539062 253.988281 114.335938 253.988281 Z M 114.335938 253.988281 " fill-opacity="1" fill-rule="nonzero"/></svg>